<svg width="18px" height="18px" viewBox="0 0 18 18">
    <title>Fill 1</title>
    <g id="Page-1" stroke="none" stroke-width="1" fill="none" fill-rule="evenodd">
        <g id="contact" transform="translate(-375.000000, -7.000000)" fill="#FFFFFF">
            <path d="M375,7 L375,25 L393,25 L393,7 L375,7 Z M385.938016,17.3496772 L388.883606,20.3008718 C389.038798,20.4563595 389.038798,20.7278912 388.883606,20.8833828 C388.728413,21.0388744 388.457397,21.0388705 388.302201,20.8833828 L385.356611,17.9321881 C384.601096,17.1752345 383.398828,17.1752345 382.663158,17.9321881 L379.6978,20.8833828 C379.542608,21.0388705 379.271592,21.0388705 379.116396,20.8833828 C378.961199,20.7278951 378.961203,20.4563634 379.116396,20.3008718 L382.061985,17.3496772 C382.817501,16.5927236 382.817501,15.3881686 382.061985,14.6510981 L379.116396,11.6991267 C378.961203,11.543639 378.961203,11.2721074 379.116396,11.1166158 C379.271588,10.9611281 379.542604,10.9611281 379.6978,11.1166158 L382.64339,14.0685871 C383.398906,14.8255407 384.601173,14.8255407 385.336844,14.0685871 L388.282433,11.1173925 C388.437626,10.9619048 388.708642,10.9619048 388.863838,11.1173925 C389.01903,11.2728802 389.01903,11.5444118 388.863838,11.6999034 L385.937822,14.6510981 C385.182306,15.3883434 385.182306,16.6118299 385.937822,17.3496772 L385.938016,17.3496772 Z" id="Fill-1"></path>
        </g>
    </g>
</svg>